<svg width="24" height="24" viewBox="0 0 24 24" fill="none" xmlns="http://www.w3.org/2000/svg">
<g id="Communication / Bell">
<path id="Vector" d="M15 17V18C15 18.7956 14.6839 19.5587 14.1213 20.1213C13.5587 20.6839 12.7956 21 12 21C11.2044 21 10.4413 20.6839 9.87868 20.1213C9.31607 19.5587 9 18.7956 9 18V17M18 13.6453V10C18 8.4087 17.3679 6.88258 16.2426 5.75736C15.1174 4.63214 13.5913 4 12 4C10.4087 4 8.88258 4.63214 7.75736 5.75736C6.63214 6.88258 6 8.4087 6 10V13.6453C6 14.3009 5.77232 14.9388 5.35645 15.4469L4.15875 16.9417C3.68582 17.5197 4.08842 18.3752 4.82917 18.4832L19.1708 20.0165C19.9116 20.1246 20.3142 19.2691 19.8412 18.6911L18.6435 17.1963C18.2277 16.6882 18 16.0503 18 15.3947V13.6453Z" stroke="#6b7280" stroke-width="2" stroke-linecap="round" stroke-linejoin="round"/>
</g>
</svg>
